<?xml version="1.0" standalone="no"?>
<!DOCTYPE svg PUBLIC "-//W3C//DTD SVG 20010904//EN"
 "http://www.w3.org/TR/2001/REC-SVG-20010904/DTD/svg10.dtd">
<svg version="1.0" xmlns="http://www.w3.org/2000/svg"
 width="410.000000pt" height="410.000000pt" viewBox="0 0 410.000000 410.000000"
 preserveAspectRatio="xMidYMid meet">
<metadata>
Created by potrace 1.11, written by Peter Selinger 2001-2013
</metadata>
<g transform="translate(0.000000,410.000000) scale(0.100000,-0.100000)"
fill="#000000" stroke="none">
<path d="M0 2050 l0 -2050 2050 0 2050 0 0 2050 0 2050 -2050 0 -2050 0 0
-2050z m3730 1450 l0 -240 -215 0 -215 0 0 -465 0 -465 -240 0 -240 0 0 465 0
465 -240 0 -240 0 0 240 0 240 695 0 695 0 0 -240z m-1970 55 l0 -175 -460 0
-460 0 0 -120 0 -120 275 0 275 0 0 -105 0 -105 -275 0 -275 0 0 -130 0 -130
460 0 460 0 0 -175 0 -175 -694 0 c-623 0 -694 2 -700 16 -3 9 -6 326 -6 705
l0 689 700 0 700 0 0 -175z m0 -2440 l0 -695 -240 0 -240 0 0 230 0 230 -220
0 -220 0 0 -235 0 -235 -240 0 -240 0 0 695 0 695 240 0 240 0 0 -225 0 -225
220 0 220 0 0 230 0 230 240 0 240 0 0 -695z m1970 0 l0 -695 -240 0 -240 0 0
230 0 230 -220 0 -220 0 0 -235 0 -235 -240 0 -240 0 0 695 0 695 240 0 240 0
0 -225 0 -225 220 0 220 0 0 230 0 230 240 0 240 0 0 -695z"/>
</g>
</svg>
